<svg xmlns="http://www.w3.org/2000/svg" width="28" height="33" viewBox="0 0 28 33">
  <g id="Responsible_beauty_icon" data-name="Responsible beauty icon" transform="translate(-123 -407)">
    <g id="Group_20497" data-name="Group 20497">
      <rect id="Rectangle_5732" data-name="Rectangle 5732" width="28" height="33" transform="translate(123 407)" fill="none"/>
      <g id="Group_20492" data-name="Group 20492" transform="translate(30.268 385)">
        <path id="Path_46809" data-name="Path 46809" d="M111.683,80.155a2.35,2.35,0,0,1-.055,4.426c-3.538,2.108-9.837,2.117-13.467.252a4.781,4.781,0,0,1-1.912-1.62,4.032,4.032,0,0,1,.207-4.264,4.793,4.793,0,0,1,1.952-1.826,8.464,8.464,0,0,1,1.784-.727" transform="translate(0 -39.863)" fill="none" stroke="#000" stroke-linecap="round" stroke-miterlimit="10" stroke-width="1"/>
        <path id="Path_46808" data-name="Path 46808" d="M205.1,78.21c2.806.956,5.032,2.66,5.295,5.457a6.163,6.163,0,0,1-2.344,5.258,13.024,13.024,0,0,1-4.065,2.1" transform="translate(-91.697 -41.557)" fill="none" stroke="#000" stroke-linecap="round" stroke-miterlimit="10" stroke-width="1"/>
        <path id="Path_46810" data-name="Path 46810" d="M125.271,43.888s-2.6-1.3-1.488-5.95S130.477,27.9,134.94,29.2s2.6,9.67-2.046,13.2S125.271,43.888,125.271,43.888Z" transform="translate(-23.524 -1)" fill="none" stroke="#000" stroke-linecap="round" stroke-miterlimit="10" stroke-width="1"/>
        <path id="Path_46811" data-name="Path 46811" d="M159.86,29.5s2.841,1.259,1.421,5.394-5.505,7.371-7.281,8.45" transform="translate(-49.354 -1.427)" fill="none" stroke="#000" stroke-linecap="round" stroke-miterlimit="10" stroke-width="1"/>
      </g>
    </g>
  </g>
</svg>
