<svg xmlns="http://www.w3.org/2000/svg" width="28" height="33" viewBox="0 0 28 33">
  <g id="Shop_Products_icon" data-name="Shop Products icon" transform="translate(-27 -407)">
    <rect id="Rectangle_5730" data-name="Rectangle 5730" width="28" height="33" transform="translate(27 407)" fill="none"/>
    <g id="Group_20490" data-name="Group 20490" transform="translate(-293.316 234.569)">
      <path id="Path_46799" data-name="Path 46799" d="M-2893.027-1707.8c.833,3.266.935,26.763.57,26.642-4.556.91-10.707.23-10.813,0a131.954,131.954,0,0,1,.66-26.642" transform="translate(3232 1883.923)" fill="none" stroke="#000" stroke-linecap="round" stroke-width="1"/>
      <path id="Path_46800" data-name="Path 46800" d="M-2900.462-1709.012s1.164.008,1.25,0a10.8,10.8,0,0,1,6.947,0h1.283" transform="translate(3229.877 1885)" fill="none" stroke="#000" stroke-width="0.7"/>
      <path id="Path_46801" data-name="Path 46801" d="M-2900.463-1705.605a8.916,8.916,0,0,0,9.473,0" transform="translate(3229.877 1882.388)" fill="none" stroke="#000" stroke-width="0.7"/>
      <path id="Path_46802" data-name="Path 46802" d="M-2901.5-1691.883s2.746-.952,10.265-.045" transform="translate(3230.426 1873.668)" fill="none" stroke="#000" stroke-width="0.7"/>
      <path id="Path_46803" data-name="Path 46803" d="M330.153,183.542a76.857,76.857,0,0,0,0,16.076" transform="translate(1 1.791)" fill="none" stroke="#000" stroke-width="1"/>
    </g>
  </g>
</svg>
