<svg xmlns="http://www.w3.org/2000/svg" xmlns:xlink="http://www.w3.org/1999/xlink" width="16" height="16" viewBox="0 0 16 16">
  <defs>
    <style>
      .cls-1, .cls-3 {
        fill: #171d48;
      }

      .cls-2 {
        clip-path: url(#clip-path);
      }

      .cls-3 {
        fill-rule: evenodd;
      }
    </style>
    <clipPath id="clip-path">
      <rect id="Rectangle_28" data-name="Rectangle 28" class="cls-1" width="16" height="16" transform="translate(661 4504)"/>
    </clipPath>
  </defs>
  <g id="Mask_Group_1" data-name="Mask Group 1" class="cls-2" transform="translate(-661 -4504)">
    <g id="Page-1" transform="translate(660.619 4503.619)">
      <g id="loreal_d_pdp_dream_length" transform="translate(-993.524 -3058.286)">
        <g id="Desktop---Footer" transform="translate(0 2867.81)">
          <g id="Desktop---Footer-Copy" transform="translate(0 49.524)">
            <g id="social" transform="translate(982.857 130.286)">
              <g id="Instagram">
                <path id="Instagram-Copy" class="cls-3" d="M19.048,11.048a29.9,29.9,0,0,1,3.276.076,5.556,5.556,0,0,1,1.9.381,3.887,3.887,0,0,1,2.362,2.362,5.988,5.988,0,0,1,.381,1.9,30.755,30.755,0,0,1,.076,3.276,29.9,29.9,0,0,1-.076,3.276,5.556,5.556,0,0,1-.381,1.9,3.887,3.887,0,0,1-2.362,2.362,5.988,5.988,0,0,1-1.9.381,30.755,30.755,0,0,1-3.276.076,29.9,29.9,0,0,1-3.276-.076,5.556,5.556,0,0,1-1.9-.381A3.887,3.887,0,0,1,11.5,24.229a5.988,5.988,0,0,1-.381-1.9,30.755,30.755,0,0,1-.076-3.276,29.9,29.9,0,0,1,.076-3.276,5.556,5.556,0,0,1,.381-1.9A3.887,3.887,0,0,1,13.867,11.5a5.988,5.988,0,0,1,1.9-.381A29.9,29.9,0,0,1,19.048,11.048Zm0,1.448a29.013,29.013,0,0,0-3.2.076,2.7,2.7,0,0,0-1.448.3A2.8,2.8,0,0,0,12.876,14.4a7.367,7.367,0,0,0-.3,1.448,29.013,29.013,0,0,0-.076,3.2,29.013,29.013,0,0,0,.076,3.2,2.7,2.7,0,0,0,.3,1.448A2.8,2.8,0,0,0,14.4,25.219a7.367,7.367,0,0,0,1.448.3,29.013,29.013,0,0,0,3.2.076,29.013,29.013,0,0,0,3.2-.076,2.7,2.7,0,0,0,1.448-.3A2.8,2.8,0,0,0,25.219,23.7a7.367,7.367,0,0,0,.3-1.448,29.013,29.013,0,0,0,.076-3.2,29.013,29.013,0,0,0-.076-3.2,2.7,2.7,0,0,0-.3-1.448A2.8,2.8,0,0,0,23.7,12.876a7.367,7.367,0,0,0-1.448-.3A29.013,29.013,0,0,0,19.048,12.5Zm0,2.438a4.114,4.114,0,1,1-4.114,4.114A4.1,4.1,0,0,1,19.048,14.933Zm0,6.781a2.667,2.667,0,1,0-2.667-2.667A2.7,2.7,0,0,0,19.048,21.714ZM24.3,14.781a.99.99,0,1,1-.99-.99A1.009,1.009,0,0,1,24.3,14.781Z"/>
              </g>
            </g>
          </g>
        </g>
      </g>
    </g>
  </g>
</svg>
