<svg xmlns="http://www.w3.org/2000/svg" width="335.067" height="125.108" viewBox="0 0 335.067 125.108">
    <g data-name="Grupo 835">
        <path data-name="Trazado 464" d="M367.465 190.995q15.594-17.145 31.157-34.293c-4.848-.688-8.031.461-11.318 4.086q-7.044 7.752-14.048 15.471a2.3 2.3 0 0 1-3.539-.171q-8.258-11.158-16.517-22.306a52.58 52.58 0 0 0-4.437-5.372 22.442 22.442 0 0 0-25.412-4.8q18.547 23.575 37.135 47.142a4.576 4.576 0 0 0 6.979.243z" transform="translate(-193.347 -141.59)" style="fill:#fff"/>
        <path data-name="Trazado 465" d="M524.482 208.407v-7.562h-37.43v64.207h37.43v-7.558h-29.09V231.07h28.322v-7.563h-28.322v-15.1z" transform="translate(-189.415 -140.167)" style="fill:#fff"/>
        <path data-name="Trazado 466" d="M369.205 241.378h33.575a17.722 17.722 0 0 1-5.517 8.34 27.347 27.347 0 0 1-9.081 5.593 30.957 30.957 0 0 1-9.494 1.689c-3.432 0-7.153-1.018-11.659-3.173a25.376 25.376 0 0 1-9.458-8.361 23.383 23.383 0 0 1-3.7-12.431 30.929 30.929 0 0 1 1.681-8.983 22.155 22.155 0 0 1 5.011-7.8c2.091-2.475 5.209-4.168 7.99-5.573a21.56 21.56 0 0 1 10.133-2.391 28.517 28.517 0 0 1 8.623 1.523 23.158 23.158 0 0 1 12.494 9.446l.3.444h9.26l-.718-1.442a26.194 26.194 0 0 0-5.216-7.636 53.2 53.2 0 0 0-7.487-5.744 29.292 29.292 0 0 0-8.59-3.4 44.986 44.986 0 0 0-9.052-.988 30.274 30.274 0 0 0-11.526 2.579 30.867 30.867 0 0 0-10.7 6.178 27.047 27.047 0 0 0-7.178 10.2 31.176 31.176 0 0 0-2.8 13.2v.4a37.141 37.141 0 0 0 2.392 12.379 33.628 33.628 0 0 0 7.365 10.4 29.744 29.744 0 0 0 10.693 6.773 31.518 31.518 0 0 0 12.327 2.4 42.718 42.718 0 0 0 11.443-1.782 28.673 28.673 0 0 0 10.59-5.623 37.232 37.232 0 0 0 7.519-9.734 31.417 31.417 0 0 0 4-12.814l.09-1.079h-43.3z" transform="translate(-192.801 -140.175)" style="fill:#fff"/>
        <path data-name="Trazado 467" d="M312.474 204.886a34.758 34.758 0 0 0-16.071-4.4h-.584a31.955 31.955 0 0 0-23.263 10.236 34.458 34.458 0 0 0-6.547 10.009 30.073 30.073 0 0 0-2.383 11.666 30.673 30.673 0 0 0 2.943 13.165 26.934 26.934 0 0 0 7 10.509 31.833 31.833 0 0 0 10.288 6.791 28.029 28.029 0 0 0 11.38 2.422h1.163a28.736 28.736 0 0 0 9.01-1.669c.673-.22 1.322-.474 1.88-.713a30.829 30.829 0 0 0 10.724-6.209 29.131 29.131 0 0 0 7.792-10.255 30.6 30.6 0 0 0 3.168-12.872 33.058 33.058 0 0 0-4.563-16.83 32.346 32.346 0 0 0-11.937-11.85zm8.541 28.593a35.987 35.987 0 0 1-2.76 10.873 24.53 24.53 0 0 1-13.82 11.774 35.062 35.062 0 0 1-8.616 1.14 25.283 25.283 0 0 1-7.958-1.314l-.078-.023a22.425 22.425 0 0 1-8.106-4.293 19.922 19.922 0 0 1-5.864-8.162 29.988 29.988 0 0 1-2.231-11.265 23 23 0 0 1 1.825-8.5 28.619 28.619 0 0 1 5.4-7.711 32.55 32.55 0 0 1 7.965-5.625 25.236 25.236 0 0 1 9.584-2.057 28.51 28.51 0 0 1 12.115 3.391c3.321 1.677 6.362 4.637 9.041 8.794a23.627 23.627 0 0 1 3.503 12.978z" transform="translate(-194.781 -140.175)" style="fill:#fff"/>
        <path data-name="Trazado 468" d="m225.406 253.725-20.3-52.88H196.4l25.642 64.207h6.94l25.83-64.207h-9.092z" transform="translate(-196.396 -140.167)" style="fill:#fff"/>
        <path data-name="Trazado 469" d="M461.34 241.308a20.862 20.862 0 0 1-2.023 9.409 13.051 13.051 0 0 1-4.964 5.228 12.924 12.924 0 0 1-13.317-.021 11.474 11.474 0 0 1-4.791-5.291 15.96 15.96 0 0 1-1.8-7.958v-41.829h-7.763v42.23a27.419 27.419 0 0 0 1.613 9.4 18.2 18.2 0 0 0 4.824 7 20.43 20.43 0 0 0 14.584 5.8 18.658 18.658 0 0 0 8.019-1.624 15.684 15.684 0 0 0 6.674-4.3 17.977 17.977 0 0 0 5.122-7.89 33.474 33.474 0 0 0 1.589-10.537v-40.079h-7.767z" transform="translate(-190.865 -140.167)" style="fill:#fff"/>
    </g>
</svg>
