<?xml version="1.0" encoding="utf-8"?>
<!-- Generator: Adobe Illustrator 23.0.3, SVG Export Plug-In . SVG Version: 6.00 Build 0)  -->
<svg version="1.1" id="Capa_1" xmlns="http://www.w3.org/2000/svg" xmlns:xlink="http://www.w3.org/1999/xlink" x="0px" y="0px"
	 viewBox="0 0 157 157" style="enable-background:new 0 0 157 157;" xml:space="preserve">
<style type="text/css">
	.st0{fill-rule:evenodd;clip-rule:evenodd;fill:#51CE71;}
	.st1{fill-rule:evenodd;clip-rule:evenodd;fill:#FFFFFF;}
</style>
<circle class="st0" cx="78.5" cy="78.5" r="78.5"/>
<g>
	<g id="WA_Logo_2_">
		<g>
			<path class="st1" d="M110.2,46.6c-8.4-8.4-19.6-13.1-31.5-13.1c-24.5,0-44.5,20-44.5,44.5c0,7.8,2,15.5,5.9,22.3l-6.3,23.1
				l23.6-6.2c6.5,3.6,13.8,5.4,21.3,5.4h0l0,0c24.6,0,44.5-20,44.5-44.5C123.3,66.3,118.6,55.1,110.2,46.6z M78.7,115.2L78.7,115.2
				c-6.7,0-13.2-1.8-18.9-5.2l-1.3-0.8l-14,3.7l3.7-13.7l-0.9-1.4c-3.7-5.9-5.7-12.7-5.7-19.7c0-20.4,16.6-37,37-37
				c9.9,0,19.2,3.9,26.2,10.9s10.8,16.3,10.8,26.2C115.7,98.6,99.1,115.2,78.7,115.2z M99,87.4c-1.1-0.6-6.6-3.3-7.6-3.6
				s-1.8-0.6-2.5,0.6c-0.7,1.1-2.9,3.6-3.5,4.4c-0.7,0.7-1.3,0.8-2.4,0.3s-4.7-1.7-8.9-5.5c-3.3-2.9-5.5-6.6-6.2-7.7
				c-0.7-1.1-0.1-1.7,0.5-2.3c0.5-0.5,1.1-1.3,1.7-1.9c0.6-0.7,0.7-1.1,1.1-1.9c0.4-0.7,0.2-1.4-0.1-1.9s-2.5-6-3.4-8.3
				c-0.9-2.2-1.8-1.9-2.5-1.9c-0.7,0-1.4,0-2.1,0s-2,0.3-3,1.4s-3.9,3.8-3.9,9.3c0,5.5,4,10.8,4.5,11.5c0.6,0.7,7.9,12,19,16.8
				c2.7,1.2,4.7,1.8,6.3,2.3c2.7,0.8,5.1,0.7,7,0.4c2.1-0.3,6.6-2.7,7.5-5.3s0.9-4.8,0.7-5.3C100.9,88.3,100.1,88,99,87.4z"/>
		</g>
	</g>
</g>
</svg>
